<svg width="21" height="21" viewBox="0 0 21 21" fill="none" xmlns="http://www.w3.org/2000/svg">
<path d="M1 1V19.1837C1 19.3623 1.07095 19.5336 1.19725 19.6599C1.32355 19.7862 1.49485 19.8571 1.67347 19.8571H19.8571" stroke="black" stroke-width="1.5" stroke-linecap="round" stroke-linejoin="round"/>
<path d="M6.22082 9.0816H4.53715C4.07222 9.0816 3.69531 9.45851 3.69531 9.92344V16.3214C3.69531 16.7863 4.07222 17.1632 4.53715 17.1632H6.22082C6.68576 17.1632 7.06266 16.7863 7.06266 16.3214V9.92344C7.06266 9.45851 6.68576 9.0816 6.22082 9.0816Z" stroke="black" stroke-width="1.5" stroke-linecap="round" stroke-linejoin="round"/>
<path d="M12.2833 7.06125H10.5996C10.1347 7.06125 9.75781 7.43815 9.75781 7.90309V16.3215C9.75781 16.7864 10.1347 17.1633 10.5996 17.1633H12.2833C12.7483 17.1633 13.1252 16.7864 13.1252 16.3215V7.90309C13.1252 7.43815 12.7483 7.06125 12.2833 7.06125Z" stroke="black" stroke-width="1.5" stroke-linecap="round" stroke-linejoin="round"/>
<path d="M18.3302 4.36768H16.6465C16.1816 4.36768 15.8047 4.74458 15.8047 5.20951V16.3218C15.8047 16.7867 16.1816 17.1636 16.6465 17.1636H18.3302C18.7951 17.1636 19.172 16.7867 19.172 16.3218V5.20951C19.172 4.74458 18.7951 4.36768 18.3302 4.36768Z" stroke="black" stroke-width="1.5" stroke-linecap="round" stroke-linejoin="round"/>
</svg>
