<svg width="20" height="18" viewBox="0 0 20 18" fill="none" xmlns="http://www.w3.org/2000/svg">
<path d="M15.7142 10.2034C15.0638 10.2034 14.4281 10.3962 13.8873 10.7576C13.3465 11.1189 12.925 11.6325 12.6761 12.2334C12.4272 12.8343 12.3621 13.4955 12.489 14.1334C12.6159 14.7713 12.9291 15.3572 13.389 15.8171C13.8489 16.277 14.4348 16.5902 15.0727 16.7171C15.7106 16.844 16.3718 16.7789 16.9727 16.53C17.5736 16.2811 18.0872 15.8596 18.4485 15.3188C18.8098 14.778 19.0027 14.1422 19.0027 13.4918C19 12.6205 18.6526 11.7857 18.0365 11.1696C17.4204 10.5534 16.5856 10.2061 15.7142 10.2034Z" stroke="black" stroke-width="1.5" stroke-miterlimit="10"/>
<path d="M4.28846 10.2035C3.63807 10.2035 3.00228 10.3964 2.46149 10.7577C1.92071 11.119 1.49922 11.6326 1.25032 12.2335C1.00142 12.8344 0.936302 13.4956 1.06319 14.1335C1.19007 14.7714 1.50327 15.3573 1.96317 15.8172C2.42307 16.2771 3.00902 16.5903 3.64692 16.7172C4.28482 16.8441 4.94601 16.779 5.5469 16.5301C6.14779 16.2812 6.66138 15.8597 7.02272 15.3189C7.38406 14.7781 7.57692 14.1423 7.57692 13.492C7.57419 12.6206 7.22684 11.7858 6.61073 11.1697C5.99462 10.5536 5.15977 10.2062 4.28846 10.2035Z" stroke="black" stroke-width="1.5" stroke-miterlimit="10"/>
<path d="M9.9997 13.3191V9.5979L7.23047 7.78059L10.692 3.9729L12.4228 7.08828H14.8459" stroke="black" stroke-width="1.5" stroke-linecap="round" stroke-linejoin="round"/>
<path d="M12.7709 3.6267C12.9533 3.62733 13.134 3.5918 13.3025 3.52217C13.4711 3.45254 13.6242 3.35019 13.7529 3.22103C13.8817 3.09187 13.9836 2.93847 14.0527 2.7697C14.1218 2.60092 14.1567 2.42012 14.1555 2.23775C14.1576 2.0563 14.1234 1.87626 14.055 1.70816C13.9866 1.54007 13.8854 1.3873 13.7573 1.25878C13.6292 1.13026 13.4767 1.02857 13.3088 0.959668C13.141 0.890761 12.961 0.856016 12.7796 0.857465C12.5977 0.856897 12.4176 0.892149 12.2494 0.961207C12.0812 1.03027 11.9282 1.13178 11.7992 1.25995C11.5388 1.5188 11.3918 1.87053 11.3906 2.23775C11.3895 2.60498 11.5343 2.95761 11.7931 3.21809C12.052 3.47857 12.4037 3.62555 12.7709 3.6267Z" fill="black"/>
</svg>
