<svg width="18" height="16" viewBox="0 0 18 16" fill="none" xmlns="http://www.w3.org/2000/svg">
<path d="M14.3652 1.53845H3.59866C3.07311 1.53995 2.56952 1.74938 2.1979 2.121C1.82629 2.49262 1.61685 2.99621 1.61536 3.52175V10.3216C1.61685 10.8472 1.82629 11.3508 2.1979 11.7224C2.56952 12.094 3.07311 12.3035 3.59866 12.305H5.0153V15.1382L8.3345 12.3708C8.38547 12.3283 8.44978 12.3049 8.51619 12.305H14.3652C14.8907 12.3035 15.3943 12.094 15.7659 11.7224C16.1375 11.3508 16.347 10.8472 16.3485 10.3216V3.52175C16.347 2.99621 16.1375 2.49262 15.7659 2.121C15.3943 1.74938 14.8907 1.53995 14.3652 1.53845Z" stroke="#9C9C9C" stroke-width="1.5" stroke-linejoin="round"/>
<path d="M5.58278 8.05447C6.20869 8.05447 6.71609 7.54707 6.71609 6.92116C6.71609 6.29524 6.20869 5.78784 5.58278 5.78784C4.95687 5.78784 4.44946 6.29524 4.44946 6.92116C4.44946 7.54707 4.95687 8.05447 5.58278 8.05447Z" fill="#9C9C9C"/>
<path d="M8.98305 8.05447C9.60896 8.05447 10.1164 7.54707 10.1164 6.92116C10.1164 6.29524 9.60896 5.78784 8.98305 5.78784C8.35713 5.78784 7.84973 6.29524 7.84973 6.92116C7.84973 7.54707 8.35713 8.05447 8.98305 8.05447Z" fill="#9C9C9C"/>
<path d="M12.3816 8.05447C13.0075 8.05447 13.5149 7.54707 13.5149 6.92116C13.5149 6.29524 13.0075 5.78784 12.3816 5.78784C11.7557 5.78784 11.2483 6.29524 11.2483 6.92116C11.2483 7.54707 11.7557 8.05447 12.3816 8.05447Z" fill="#9C9C9C"/>
</svg>
