<svg width="17" height="21" viewBox="0 0 17 21" fill="none" xmlns="http://www.w3.org/2000/svg">
<path d="M11.9615 6.84637H13.7885C14.273 6.84637 14.7377 7.03885 15.0803 7.38146C15.4229 7.72407 15.6154 8.18876 15.6154 8.67329V18.1733C15.6154 18.6578 15.4229 19.1225 15.0803 19.4651C14.7377 19.8077 14.273 20.0002 13.7885 20.0002H2.82692C2.34239 20.0002 1.87771 19.8077 1.53509 19.4651C1.19248 19.1225 1 18.6578 1 18.1733V8.67329C1 8.18876 1.19248 7.72407 1.53509 7.38146C1.87771 7.03885 2.34239 6.84637 2.82692 6.84637H4.65385" stroke="black" stroke-width="1.60123" stroke-linecap="round" stroke-linejoin="round"/>
<path d="M4.65234 11.23L8.30619 14.8838L11.96 11.23" stroke="black" stroke-width="1.60123" stroke-linecap="round" stroke-linejoin="round"/>
<path d="M8.30835 1V14.1538" stroke="black" stroke-width="1.60123" stroke-linecap="round" stroke-linejoin="round"/>
</svg>
