<svg width="22" height="17" viewBox="0 0 22 17" fill="none" xmlns="http://www.w3.org/2000/svg">
<path d="M20.3052 8.56158C19.4955 4.83491 18.2946 2.45769 16.3698 1.87839C15.997 1.76768 15.6105 1.71244 15.2221 1.71441C14.0388 1.71441 13.105 2.43125 10.9976 2.43125C8.89018 2.43125 7.95462 1.71441 6.77308 1.71441C6.36855 1.71228 5.9657 1.76747 5.57612 1.87839C3.64868 2.45769 2.45789 4.83715 1.63894 8.56158C0.802838 12.3658 0.954217 15.3716 2.58858 15.9486C3.73273 16.3518 4.75586 15.5181 5.72486 14.2909C6.825 12.8931 8.17993 12.463 10.9976 12.463C13.8153 12.463 15.1174 12.8931 16.2193 14.2909C17.1874 15.519 18.2484 16.3424 19.3622 15.9558C21.1673 15.3281 21.1418 12.4106 20.3052 8.56158Z" stroke="black" stroke-width="1.5" stroke-miterlimit="10"/>
<path d="M12.5832 8.34483C13.0693 8.34483 13.4633 7.94366 13.4633 7.44878C13.4633 6.95391 13.0693 6.55273 12.5832 6.55273C12.0972 6.55273 11.7031 6.95391 11.7031 7.44878C11.7031 7.94366 12.0972 8.34483 12.5832 8.34483Z" fill="black"/>
<path d="M14.5207 10.3165C14.3466 10.3165 14.1763 10.2639 14.0315 10.1653C13.8868 10.0668 13.774 9.92671 13.7074 9.76285C13.6409 9.59899 13.6236 9.41871 13.6577 9.24483C13.6918 9.07095 13.7759 8.91129 13.8992 8.78607C14.0225 8.66084 14.1795 8.57568 14.3504 8.54136C14.5213 8.50704 14.6983 8.5251 14.8591 8.59327C15.0198 8.66143 15.1571 8.77663 15.2536 8.92428C15.35 9.07193 15.4013 9.24539 15.4008 9.4227C15.4003 9.65996 15.3073 9.8873 15.1423 10.0549C14.9773 10.2224 14.7538 10.3165 14.5207 10.3165Z" fill="black"/>
<path d="M14.5207 6.37413C15.0068 6.37413 15.4008 5.97296 15.4008 5.47808C15.4008 4.98321 15.0068 4.58203 14.5207 4.58203C14.0347 4.58203 13.6406 4.98321 13.6406 5.47808C13.6406 5.97296 14.0347 6.37413 14.5207 6.37413Z" fill="black"/>
<path d="M16.4543 8.34483C16.9404 8.34483 17.3344 7.94366 17.3344 7.44878C17.3344 6.95391 16.9404 6.55273 16.4543 6.55273C15.9683 6.55273 15.5742 6.95391 15.5742 7.44878C15.5742 7.94366 15.9683 8.34483 16.4543 8.34483Z" fill="black"/>
<path d="M6.77344 5.29883V9.59987" stroke="black" stroke-width="1.5" stroke-linecap="round" stroke-linejoin="round"/>
<path d="M8.88469 7.44922H4.66016" stroke="black" stroke-width="1.5" stroke-linecap="round" stroke-linejoin="round"/>
</svg>
