<svg width="46" height="15" viewBox="0 0 46 15" fill="none" xmlns="http://www.w3.org/2000/svg">
<path d="M2.2168 6.30078V14H0.0986328V4.49023H2.12012L2.2168 6.30078ZM5.12598 4.42871L5.1084 6.39746C4.97949 6.37402 4.83887 6.35645 4.68652 6.34473C4.54004 6.33301 4.39355 6.32715 4.24707 6.32715C3.88379 6.32715 3.56445 6.37988 3.28906 6.48535C3.01367 6.58496 2.78223 6.73145 2.59473 6.9248C2.41309 7.1123 2.27246 7.34082 2.17285 7.61035C2.07324 7.87988 2.01465 8.18164 1.99707 8.51562L1.51367 8.55078C1.51367 7.95312 1.57227 7.39941 1.68945 6.88965C1.80664 6.37988 1.98242 5.93164 2.2168 5.54492C2.45703 5.1582 2.75586 4.85645 3.11328 4.63965C3.47656 4.42285 3.89551 4.31445 4.37012 4.31445C4.49902 4.31445 4.63672 4.32617 4.7832 4.34961C4.93555 4.37305 5.0498 4.39941 5.12598 4.42871ZM10.4697 14.1758C9.7666 14.1758 9.13086 14.0615 8.5625 13.833C8 13.5986 7.51953 13.2734 7.12109 12.8574C6.72852 12.4414 6.42676 11.9521 6.21582 11.3896C6.00488 10.8271 5.89941 10.2207 5.89941 9.57031V9.21875C5.89941 8.47461 6.00781 7.80078 6.22461 7.19727C6.44141 6.59375 6.74316 6.07812 7.12988 5.65039C7.5166 5.2168 7.97363 4.88574 8.50098 4.65723C9.02832 4.42871 9.59961 4.31445 10.2148 4.31445C10.8945 4.31445 11.4893 4.42871 11.999 4.65723C12.5088 4.88574 12.9307 5.20801 13.2646 5.62402C13.6045 6.03418 13.8564 6.52344 14.0205 7.0918C14.1904 7.66016 14.2754 8.28711 14.2754 8.97266V9.87793H6.92773V8.35742H12.1836V8.19043C12.1719 7.80957 12.0957 7.45215 11.9551 7.11816C11.8203 6.78418 11.6123 6.51465 11.3311 6.30957C11.0498 6.10449 10.6748 6.00195 10.2061 6.00195C9.85449 6.00195 9.54102 6.07812 9.26562 6.23047C8.99609 6.37695 8.77051 6.59082 8.58887 6.87207C8.40723 7.15332 8.2666 7.49316 8.16699 7.8916C8.07324 8.28418 8.02637 8.72656 8.02637 9.21875V9.57031C8.02637 9.98633 8.08203 10.373 8.19336 10.7305C8.31055 11.082 8.48047 11.3896 8.70312 11.6533C8.92578 11.917 9.19531 12.125 9.51172 12.2773C9.82812 12.4238 10.1885 12.4971 10.5928 12.4971C11.1025 12.4971 11.5566 12.3945 11.9551 12.1895C12.3535 11.9844 12.6992 11.6943 12.9922 11.3193L14.1084 12.4004C13.9033 12.6992 13.6367 12.9863 13.3086 13.2617C12.9805 13.5312 12.5791 13.751 12.1045 13.9209C11.6357 14.0908 11.0908 14.1758 10.4697 14.1758ZM21.7285 12.0312V0.5H23.8555V14H21.9307L21.7285 12.0312ZM15.541 9.35059V9.16602C15.541 8.44531 15.626 7.78906 15.7959 7.19727C15.9658 6.59961 16.2119 6.08691 16.5342 5.65918C16.8564 5.22559 17.249 4.89453 17.7119 4.66602C18.1748 4.43164 18.6963 4.31445 19.2764 4.31445C19.8506 4.31445 20.3545 4.42578 20.7881 4.64844C21.2217 4.87109 21.5908 5.19043 21.8955 5.60645C22.2002 6.0166 22.4434 6.50879 22.625 7.08301C22.8066 7.65137 22.9355 8.28418 23.0117 8.98145V9.57031C22.9355 10.25 22.8066 10.8711 22.625 11.4336C22.4434 11.9961 22.2002 12.4824 21.8955 12.8926C21.5908 13.3027 21.2188 13.6191 20.7793 13.8418C20.3457 14.0645 19.8389 14.1758 19.2588 14.1758C18.6846 14.1758 18.166 14.0557 17.7031 13.8154C17.2461 13.5752 16.8564 13.2383 16.5342 12.8047C16.2119 12.3711 15.9658 11.8613 15.7959 11.2754C15.626 10.6836 15.541 10.042 15.541 9.35059ZM17.6592 9.16602V9.35059C17.6592 9.78418 17.6973 10.1885 17.7734 10.5635C17.8555 10.9385 17.9814 11.2695 18.1514 11.5566C18.3213 11.8379 18.541 12.0605 18.8105 12.2246C19.0859 12.3828 19.4141 12.4619 19.7949 12.4619C20.2754 12.4619 20.6709 12.3564 20.9814 12.1455C21.292 11.9346 21.5352 11.6504 21.7109 11.293C21.8926 10.9297 22.0156 10.5254 22.0801 10.0801V8.48926C22.0449 8.14355 21.9717 7.82129 21.8604 7.52246C21.7549 7.22363 21.6113 6.96289 21.4297 6.74023C21.248 6.51172 21.0225 6.33594 20.7529 6.21289C20.4893 6.08398 20.1758 6.01953 19.8125 6.01953C19.4258 6.01953 19.0977 6.10156 18.8281 6.26562C18.5586 6.42969 18.3359 6.65527 18.1602 6.94238C17.9902 7.22949 17.8643 7.56348 17.7822 7.94434C17.7002 8.3252 17.6592 8.73242 17.6592 9.16602ZM31.8711 12.0312V0.5H33.998V14H32.0732L31.8711 12.0312ZM25.6836 9.35059V9.16602C25.6836 8.44531 25.7686 7.78906 25.9385 7.19727C26.1084 6.59961 26.3545 6.08691 26.6768 5.65918C26.999 5.22559 27.3916 4.89453 27.8545 4.66602C28.3174 4.43164 28.8389 4.31445 29.4189 4.31445C29.9932 4.31445 30.4971 4.42578 30.9307 4.64844C31.3643 4.87109 31.7334 5.19043 32.0381 5.60645C32.3428 6.0166 32.5859 6.50879 32.7676 7.08301C32.9492 7.65137 33.0781 8.28418 33.1543 8.98145V9.57031C33.0781 10.25 32.9492 10.8711 32.7676 11.4336C32.5859 11.9961 32.3428 12.4824 32.0381 12.8926C31.7334 13.3027 31.3613 13.6191 30.9219 13.8418C30.4883 14.0645 29.9814 14.1758 29.4014 14.1758C28.8271 14.1758 28.3086 14.0557 27.8457 13.8154C27.3887 13.5752 26.999 13.2383 26.6768 12.8047C26.3545 12.3711 26.1084 11.8613 25.9385 11.2754C25.7686 10.6836 25.6836 10.042 25.6836 9.35059ZM27.8018 9.16602V9.35059C27.8018 9.78418 27.8398 10.1885 27.916 10.5635C27.998 10.9385 28.124 11.2695 28.2939 11.5566C28.4639 11.8379 28.6836 12.0605 28.9531 12.2246C29.2285 12.3828 29.5566 12.4619 29.9375 12.4619C30.418 12.4619 30.8135 12.3564 31.124 12.1455C31.4346 11.9346 31.6777 11.6504 31.8535 11.293C32.0352 10.9297 32.1582 10.5254 32.2227 10.0801V8.48926C32.1875 8.14355 32.1143 7.82129 32.0029 7.52246C31.8975 7.22363 31.7539 6.96289 31.5723 6.74023C31.3906 6.51172 31.165 6.33594 30.8955 6.21289C30.6318 6.08398 30.3184 6.01953 29.9551 6.01953C29.5684 6.01953 29.2402 6.10156 28.9707 6.26562C28.7012 6.42969 28.4785 6.65527 28.3027 6.94238C28.1328 7.22949 28.0068 7.56348 27.9248 7.94434C27.8428 8.3252 27.8018 8.73242 27.8018 9.16602ZM38.4805 4.49023V14H36.3535V4.49023H38.4805ZM36.2129 1.99414C36.2129 1.67187 36.3184 1.40527 36.5293 1.19434C36.7461 0.977539 37.0449 0.869141 37.4258 0.869141C37.8008 0.869141 38.0967 0.977539 38.3135 1.19434C38.5303 1.40527 38.6387 1.67187 38.6387 1.99414C38.6387 2.31055 38.5303 2.57422 38.3135 2.78516C38.0967 2.99609 37.8008 3.10156 37.4258 3.10156C37.0449 3.10156 36.7461 2.99609 36.5293 2.78516C36.3184 2.57422 36.2129 2.31055 36.2129 1.99414ZM45.1602 4.49023V6.03711H39.7988V4.49023H45.1602ZM41.3457 2.16113H43.4639V11.3721C43.4639 11.665 43.5049 11.8906 43.5869 12.0488C43.6748 12.2012 43.7949 12.3037 43.9473 12.3564C44.0996 12.4092 44.2783 12.4355 44.4834 12.4355C44.6299 12.4355 44.7705 12.4268 44.9053 12.4092C45.04 12.3916 45.1484 12.374 45.2305 12.3564L45.2393 13.9736C45.0635 14.0264 44.8584 14.0732 44.624 14.1143C44.3955 14.1553 44.1318 14.1758 43.833 14.1758C43.3467 14.1758 42.916 14.0908 42.541 13.9209C42.166 13.7451 41.873 13.4609 41.6621 13.0684C41.4512 12.6758 41.3457 12.1543 41.3457 11.5039V2.16113Z" fill="black"/>
</svg>
