<svg width="17" height="4" viewBox="0 0 17 4" fill="none" xmlns="http://www.w3.org/2000/svg">
<path d="M8.1635 3.99937C9.18902 3.99937 10.0204 3.16802 10.0204 2.14251C10.0204 1.11699 9.18902 0.285645 8.1635 0.285645C7.13799 0.285645 6.30664 1.11699 6.30664 2.14251C6.30664 3.16802 7.13799 3.99937 8.1635 3.99937Z" fill="#9C9C9C"/>
<path d="M14.351 3.99937C15.3765 3.99937 16.2079 3.16802 16.2079 2.14251C16.2079 1.11699 15.3765 0.285645 14.351 0.285645C13.3255 0.285645 12.4941 1.11699 12.4941 2.14251C12.4941 3.16802 13.3255 3.99937 14.351 3.99937Z" fill="#9C9C9C"/>
<path d="M1.9721 3.99937C2.99761 3.99937 3.82896 3.16802 3.82896 2.14251C3.82896 1.11699 2.99761 0.285645 1.9721 0.285645C0.94658 0.285645 0.115234 1.11699 0.115234 2.14251C0.115234 3.16802 0.94658 3.99937 1.9721 3.99937Z" fill="#9C9C9C"/>
</svg>
