<svg width="21" height="6" viewBox="0 0 21 6" fill="none" xmlns="http://www.w3.org/2000/svg">
<path d="M10.2 5.49958C11.4819 5.49958 12.5211 4.4604 12.5211 3.1785C12.5211 1.8966 11.4819 0.857422 10.2 0.857422C8.91809 0.857422 7.87891 1.8966 7.87891 3.1785C7.87891 4.4604 8.91809 5.49958 10.2 5.49958Z" fill="black"/>
<path d="M17.9383 5.49958C19.2202 5.49958 20.2593 4.4604 20.2593 3.1785C20.2593 1.8966 19.2202 0.857422 17.9383 0.857422C16.6564 0.857422 15.6172 1.8966 15.6172 3.1785C15.6172 4.4604 16.6564 5.49958 17.9383 5.49958Z" fill="black"/>
<path d="M2.4617 5.49958C3.7436 5.49958 4.78278 4.4604 4.78278 3.1785C4.78278 1.8966 3.7436 0.857422 2.4617 0.857422C1.17981 0.857422 0.140625 1.8966 0.140625 3.1785C0.140625 4.4604 1.17981 5.49958 2.4617 5.49958Z" fill="black"/>
</svg>
