<svg width="16" height="22" viewBox="0 0 16 22" fill="none" xmlns="http://www.w3.org/2000/svg">
<path d="M1.57031 13.8724C1.57031 9.51993 7.37362 6.15027 6.0632 1.14258C9.15205 1.14258 15.049 5.63546 15.049 13.8724C15.049 15.6598 14.3389 17.374 13.0751 18.6378C11.8112 19.9017 10.097 20.6117 8.30964 20.6117C6.52226 20.6117 4.80808 19.9017 3.54421 18.6378C2.28035 17.374 1.57031 15.6598 1.57031 13.8724Z" stroke="black" stroke-width="1.5" stroke-linecap="round" stroke-linejoin="round"/>
<path d="M11.303 16.1184C11.303 18.8193 9.80538 19.8625 8.30776 19.8625C6.81013 19.8625 5.3125 18.8193 5.3125 16.1184C5.3125 13.4176 7.18453 12.0936 6.81013 10.1279C8.77576 10.1279 11.303 13.4176 11.303 16.1184Z" stroke="black" stroke-width="1.5" stroke-linecap="round" stroke-linejoin="round"/>
</svg>
