<svg width="15" height="15" viewBox="0 0 15 15" fill="none" xmlns="http://www.w3.org/2000/svg">
<path d="M6.51771 1C5.49285 1 4.49101 1.30391 3.63887 1.87329C2.78674 2.44267 2.12257 3.25195 1.73038 4.19879C1.33818 5.14564 1.23557 6.18752 1.43551 7.19268C1.63545 8.19785 2.12896 9.12115 2.85365 9.84583C3.57833 10.5705 4.50163 11.064 5.5068 11.264C6.51196 11.4639 7.55384 11.3613 8.50069 10.9691C9.44753 10.5769 10.2568 9.91275 10.8262 9.06061C11.3956 8.20847 11.6995 7.20663 11.6995 6.18177C11.6994 4.80751 11.1534 3.48955 10.1817 2.5178C9.20993 1.54605 7.89197 1.00009 6.51771 1Z" stroke="#A8A8A8" stroke-width="1.5" stroke-miterlimit="10"/>
<path d="M10.3867 10.0479L14.0056 13.6667" stroke="#A8A8A8" stroke-width="1.5" stroke-miterlimit="10" stroke-linecap="round"/>
</svg>
