<svg width="13" height="16" viewBox="0 0 13 16" fill="none" xmlns="http://www.w3.org/2000/svg">
<path d="M9.42458 5.61469H10.762C11.1167 5.61469 11.4568 5.75559 11.7076 6.0064C11.9584 6.2572 12.0993 6.59737 12.0993 6.95207V13.3715C12.0993 13.7262 11.9584 14.0664 11.7076 14.3172C11.4568 14.568 11.1167 14.7089 10.762 14.7089H2.73765C2.38296 14.7089 2.04279 14.568 1.79198 14.3172C1.54117 14.0664 1.40027 13.7262 1.40027 13.3715V6.95207C1.40027 6.59737 1.54117 6.2572 1.79198 6.0064C2.04279 5.75559 2.38296 5.61469 2.73765 5.61469H4.07504" stroke="#9C9C9C" stroke-width="1.5" stroke-linecap="round" stroke-linejoin="round"/>
<path d="M9.42352 3.47494L6.74874 0.800171L4.07397 3.47494" stroke="#9C9C9C" stroke-width="1.5" stroke-linecap="round" stroke-linejoin="round"/>
<path d="M6.75183 9.92783V0.800171" stroke="#9C9C9C" stroke-width="1.5" stroke-linecap="round" stroke-linejoin="round"/>
</svg>
