<svg width="21" height="19" viewBox="0 0 21 19" fill="none" xmlns="http://www.w3.org/2000/svg">
<path d="M17.4271 4.53989H3.26494C2.09171 4.53989 1.14062 5.49098 1.14062 6.6642V15.1615C1.14062 16.3347 2.09171 17.2858 3.26494 17.2858H17.4271C18.6003 17.2858 19.5514 16.3347 19.5514 15.1615V6.6642C19.5514 5.49098 18.6003 4.53989 17.4271 4.53989Z" stroke="black" stroke-width="1.5" stroke-linejoin="round"/>
<path d="M17.2217 4.53981V3.21212C17.2216 2.88648 17.1496 2.56488 17.0109 2.27026C16.8722 1.97564 16.6702 1.71527 16.4193 1.50772C16.1683 1.30017 15.8747 1.15055 15.5593 1.06955C15.2439 0.988551 14.9145 0.97816 14.5946 1.03912L2.93921 3.02845C2.43306 3.12491 1.97643 3.39498 1.64809 3.79207C1.31975 4.18917 1.14028 4.6884 1.14063 5.20366V7.37224" stroke="black" stroke-width="1.5" stroke-linejoin="round"/>
<path d="M15.3029 12.329C15.0228 12.329 14.749 12.2459 14.5161 12.0903C14.2832 11.9347 14.1017 11.7135 13.9945 11.4548C13.8873 11.196 13.8593 10.9112 13.9139 10.6365C13.9686 10.3618 14.1035 10.1094 14.3015 9.91138C14.4996 9.71332 14.7519 9.57844 15.0266 9.52379C15.3014 9.46915 15.5861 9.4972 15.8449 9.60439C16.1037 9.71157 16.3249 9.89309 16.4805 10.126C16.6361 10.3589 16.7191 10.6327 16.7191 10.9128C16.7191 11.2884 16.5699 11.6486 16.3043 11.9142C16.0388 12.1798 15.6785 12.329 15.3029 12.329Z" fill="black"/>
</svg>
